<?xml version="1.0" encoding="utf-8"?>
<svg version="1.1" xmlns:xlink="http://www.w3.org/1999/xlink" width="39px" height="30px" xmlns="http://www.w3.org/2000/svg">
  <g transform="matrix(1 0 0 1 -475 -224 )">
    <path d="M 38.2954838709677 4.14141414141414  C 38.7651612903226 4.61279461279461  39 5.18518518518519  39 5.85858585858586  C 39 6.53198653198653  38.7651612903226 7.1043771043771  38.2954838709677 7.57575757575757  L 20.0787096774194 25.8585858585859  L 16.6567741935484 29.2929292929293  C 16.1870967741935 29.7643097643098  15.6167741935484 30  14.9458064516129 30  C 14.2748387096774 30  13.7045161290323 29.7643097643098  13.2348387096774 29.2929292929293  L 9.81290322580645 25.8585858585859  L 0.704516129032258 16.7171717171717  C 0.23483870967742 16.2457912457912  0 15.6734006734007  0 15  C 0 14.3265993265993  0.23483870967742 13.7542087542088  0.704516129032258 13.2828282828283  L 4.12645161290323 9.84848484848485  C 4.59612903225807 9.37710437710438  5.16645161290323 9.14141414141414  5.83741935483871 9.14141414141414  C 6.5083870967742 9.14141414141414  7.07870967741936 9.37710437710438  7.54838709677419 9.84848484848485  L 14.9458064516129 17.2979797979798  L 31.4516129032258 0.707070707070707  C 31.9212903225806 0.235690235690235  32.4916129032258 0  33.1625806451613 0  C 33.8335483870968 0  34.4038709677419 0.235690235690235  34.8735483870968 0.707070707070707  L 38.2954838709677 4.14141414141414  Z " fill-rule="nonzero" fill="#a6a6a6" stroke="none" transform="matrix(1 0 0 1 475 224 )" />
  </g>
</svg>