<?xml version="1.0" encoding="utf-8"?>
<svg version="1.1" xmlns:xlink="http://www.w3.org/1999/xlink" width="26px" height="40px" xmlns="http://www.w3.org/2000/svg">
  <g transform="matrix(1 0 0 1 -33 -67 )">
    <path d="M 26 5.70719602977667  C 26 6.13730355665839  25.8410553410553 6.50951199338296  25.523166023166 6.82382133995037  L 12.1969111969112 20  L 25.523166023166 33.1761786600496  C 25.8410553410553 33.490488006617  26 33.8626964433416  26 34.2928039702233  C 26 34.722911497105  25.8410553410553 35.0951199338296  25.523166023166 35.409429280397  L 21.3571428571429 39.5285359801489  C 21.0392535392535 39.8428453267163  20.6628056628057 40  20.2277992277992 40  C 19.7927927927928 40  19.4163449163449 39.8428453267163  19.0984555984556 39.5285359801489  L 0.476833976833977 21.1166253101737  C 0.158944658944659 20.8023159636063  0 20.4301075268817  0 20  C 0 19.5698924731183  0.158944658944659 19.1976840363937  0.476833976833977 18.8833746898263  L 19.0984555984556 0.471464019851116  C 19.4163449163449 0.157154673283704  19.7927927927928 0  20.2277992277992 0  C 20.6628056628057 0  21.0392535392535 0.157154673283704  21.3571428571429 0.471464019851116  L 25.523166023166 4.59057071960298  C 25.8410553410553 4.90488006617039  26 5.27708850289495  26 5.70719602977667  Z " fill-rule="nonzero" fill="#555555" stroke="none" transform="matrix(1 0 0 1 33 67 )" />
  </g>
</svg>