<?xml version="1.0" encoding="utf-8"?>
<svg version="1.1" xmlns:xlink="http://www.w3.org/1999/xlink" width="74px" height="74px" xmlns="http://www.w3.org/2000/svg">
  <g transform="matrix(1 0 0 1 -233 -981 )">
    <path d="M 270 981  C 290.72 981  307 997.28  307 1018  C 307 1038.72  290.72 1055  270 1055  C 249.28 1055  233 1038.72  233 1018  C 233 997.28  249.28 981  270 981  Z " fill-rule="nonzero" fill="#ffffff" stroke="none" />
    <path d="M 270 981.5  C 290.44 981.5  306.5 997.56  306.5 1018  C 306.5 1038.44  290.44 1054.5  270 1054.5  C 249.56 1054.5  233.5 1038.44  233.5 1018  C 233.5 997.56  249.56 981.5  270 981.5  Z " stroke-width="1" stroke="#797979" fill="none" />
  </g>
</svg>